<?xml version="1.0" encoding="UTF-8"?>
<svg id="Capa_2" data-name="Capa 2" xmlns="http://www.w3.org/2000/svg" viewBox="0 0 109.67 109.67">
  <defs>
    <style>
      .cls-1, .cls-2, .cls-3 {
        fill: none;
      }

      .cls-4 {
        fill: #089339;
      }

      .cls-5 {
        fill: #008d36;
      }

      .cls-5, .cls-2 {
        stroke: #008d36;
        stroke-width: 2px;
      }

      .cls-5, .cls-2, .cls-3 {
        stroke-miterlimit: 10;
      }

      .cls-3 {
        stroke: #089339;
        stroke-width: 4px;
      }
    </style>
  </defs>
  <g id="Capa_1-2" data-name="Capa 1">
    <circle class="cls-3" cx="54.83" cy="54.83" r="52.83"/>
    <circle class="cls-4" cx="34.48" cy="41.67" r="3.63"/>
    <circle class="cls-4" cx="74.65" cy="41.67" r="3.63"/>
    <line class="cls-1" x1="29.54" y1="47.4" x2="43.9" y2="61.76"/>
    <polyline class="cls-1" points="20.52 41.67 28.53 47.47 38.99 47.54 29.54 47.4"/>
    <path class="cls-4" d="m48.88,40.76s.85-.3,1.51.22c.5.4.71,1.09.51,1.73-3.63,3.2-7.26,6.4-10.89,9.59v11.61l4.29,5.53s.07.08.13.16c.22.32.29.64.32.87-.02.11-.06.27-.11.45,0,0-.05.19-.12.38-.11.31-2.38,4.98-5.51,11.36-.66.48-1.54.55-2.27.18-.72-.36-1.18-1.1-1.2-1.91,1.47-3.34,2.93-6.69,4.4-10.03l-4.83-5.05,1.08,4.47-5.33,11.83c-.65.64-1.64.79-2.45.38-.81-.41-1.28-1.29-1.17-2.19,1.51-3.37,3.03-6.73,4.54-10.1l-3.25-4.54.14-13.06-10.46-8.95c-.9-.51-1.11-1.67-.58-2.38.48-.64,1.48-.81,2.24-.29,2.89,2.14,5.77,4.28,8.66,6.42l10.46.07,9.88-6.78Z"/>
    <path class="cls-4" d="m59.9,40.38s-.88-.31-1.56.22c-.52.41-.73,1.12-.52,1.78,3.73,3.29,7.47,6.57,11.2,9.86v11.94l-4.41,5.68s-.07.08-.13.17c-.22.33-.3.66-.33.89.02.12.06.28.11.46,0,0,.06.2.13.39.12.31,2.45,5.12,5.66,11.67.68.49,1.58.56,2.33.18.74-.37,1.21-1.13,1.23-1.96-1.51-3.43-3.02-6.87-4.53-10.3l4.97-5.19-1.11,4.6,5.48,12.16c.67.65,1.69.81,2.52.4.84-.42,1.32-1.32,1.2-2.25-1.56-3.46-3.12-6.92-4.67-10.38l3.34-4.67-.15-13.42,10.76-9.19c.92-.52,1.14-1.72.59-2.45-.49-.66-1.52-.83-2.3-.3-2.97,2.2-5.94,4.4-8.9,6.6l-10.76.07-10.16-6.97Z"/>
    <g>
      <polyline class="cls-2" points="61.8 33.82 61.8 26.7 68.83 24.83 68.83 32.17"/>
      <ellipse class="cls-5" cx="60.7" cy="34.46" rx="1.18" ry=".68" transform="translate(-8.32 24.07) rotate(-21.03)"/>
      <ellipse class="cls-5" cx="67.7" cy="32.32" rx="1.18" ry=".68" transform="translate(-7.09 26.44) rotate(-21.03)"/>
      <polyline class="cls-2" points="38.94 31.71 38.94 24.59 45.96 22.73 45.96 30.07"/>
      <ellipse class="cls-5" cx="37.84" cy="32.36" rx="1.18" ry=".68" transform="translate(-9.09 15.73) rotate(-21.03)"/>
      <ellipse class="cls-5" cx="44.83" cy="30.21" rx="1.18" ry=".68" transform="translate(-7.85 18.1) rotate(-21.03)"/>
      <polyline class="cls-2" points="51.47 63.56 51.47 56.44 58.49 54.58 58.49 61.92"/>
      <ellipse class="cls-5" cx="50.37" cy="64.2" rx="1.18" ry=".68" transform="translate(-19.68 22.35) rotate(-21.03)"/>
      <ellipse class="cls-5" cx="57.36" cy="62.06" rx="1.18" ry=".68" transform="translate(-18.45 24.71) rotate(-21.03)"/>
    </g>
  </g>
</svg>