<?xml version="1.0" encoding="UTF-8"?>
<svg id="Capa_2" data-name="Capa 2" xmlns="http://www.w3.org/2000/svg" viewBox="0 0 109.67 109.67">
  <defs>
    <style>
      .cls-1 {
        stroke: #089339;
        stroke-width: 2px;
      }

      .cls-1, .cls-2 {
        fill: none;
        stroke-miterlimit: 10;
      }

      .cls-2 {
        stroke: #008d36;
        stroke-width: 4px;
      }
    </style>
  </defs>
  <g id="Capa_1-2" data-name="Capa 1">
    <line class="cls-2" x1="16.67" y1="17.04" x2="92.06" y2="92.42"/>
    <g>
      <rect class="cls-1" x="25.99" y="37.2" width="57.69" height="8.85"/>
      <rect class="cls-1" x="29.44" y="46.04" width="51.43" height="37.14"/>
      <rect class="cls-1" x="32.16" y="55.77" width="45.99" height="8.85" transform="translate(115.34 5.04) rotate(90)"/>
      <path class="cls-1" d="m55.15,36.68h-12.11c-.46-.22-1.25-.66-1.95-1.5-.6-.71-.9-1.42-1.05-1.87-.1-.34-.65-2.34.52-4.27.82-1.34,2.02-1.91,2.47-2.1.6-.23,1.84-.62,3.37-.37,2.47.39,3.87,2.12,4.2,2.55,1.51,2.52,3.02,5.05,4.54,7.57Z"/>
      <path class="cls-1" d="m55.15,36.68h12.12c.46-.2,1.25-.62,1.95-1.41.6-.67.9-1.33,1.05-1.76.1-.32.65-2.2-.53-4.02-.82-1.26-2.02-1.8-2.48-1.98-.6-.22-1.84-.58-3.38-.35-2.47.37-3.87,1.99-4.2,2.4-1.51,2.38-3.03,4.75-4.54,7.13Z"/>
    </g>
    <circle class="cls-2" cx="54.83" cy="54.83" r="52.83"/>
  </g>
</svg>